<?xml version="1.0" encoding="utf-8"?>
<!-- Generator: Adobe Illustrator 23.1.1, SVG Export Plug-In . SVG Version: 6.00 Build 0)  -->
<svg version="1.0" id="Layer_1" xmlns="http://www.w3.org/2000/svg" xmlns:xlink="http://www.w3.org/1999/xlink" x="0px" y="0px"
	 viewBox="0 0 29 29" style="enable-background:new 0 0 29 29;" xml:space="preserve">
<g>
	<path style="fill:#FFFFFF;" d="M28.5,27h-28C0.2,27,0,27.2,0,27.5S0.2,28,0.5,28h28c0.3,0,0.5-0.2,0.5-0.5S28.8,27,28.5,27z"/>
	<path style="fill:#FFFFFF;" d="M11,25H5c-0.8,0-1.5-0.7-1.5-1.5v-21C3.5,1.7,4.2,1,5,1h6c0.8,0,1.5,0.7,1.5,1.5v21
		C12.5,24.3,11.8,25,11,25z M11.5,2.5C11.5,2.2,11.3,2,11,2H5C4.7,2,4.5,2.2,4.5,2.5v21C4.5,23.8,4.7,24,5,24h6
		c0.3,0,0.5-0.2,0.5-0.5V2.5z"/>
	<path style="fill:#FFFFFF;" d="M23.7,25h-5.3c-0.7,0-1.3-0.7-1.3-1.5v-9c0-0.8,0.6-1.5,1.3-1.5h5.3c0.7,0,1.3,0.7,1.3,1.5v9
		C25,24.3,24.4,25,23.7,25z"/>
</g>
</svg>
