<?xml version="1.0" encoding="utf-8"?>
<!-- Generator: Adobe Illustrator 23.1.1, SVG Export Plug-In . SVG Version: 6.00 Build 0)  -->
<svg version="1.0" id="Layer_1" xmlns="http://www.w3.org/2000/svg" xmlns:xlink="http://www.w3.org/1999/xlink" x="0px" y="0px"
	 viewBox="0 0 29 29" style="enable-background:new 0 0 29 29;" xml:space="preserve">
<g>
	<path style="fill:#FFFFFF;" d="M28.5,2h-28C0.2,2,0,1.8,0,1.5S0.2,1,0.5,1h28C28.8,1,29,1.2,29,1.5S28.8,2,28.5,2z"/>
	<path style="fill:#FFFFFF;" d="M11,4H5C4.2,4,3.5,4.7,3.5,5.5v21C3.5,27.3,4.2,28,5,28h6c0.8,0,1.5-0.7,1.5-1.5v-21
		C12.5,4.7,11.8,4,11,4z M11.5,26.5c0,0.3-0.2,0.5-0.5,0.5H5c-0.3,0-0.5-0.2-0.5-0.5v-21C4.5,5.2,4.7,5,5,5h6c0.3,0,0.5,0.2,0.5,0.5
		V26.5z"/>
	<path style="fill:#FFFFFF;" d="M23.7,4h-5.3C17.6,4,17,4.7,17,5.5v9c0,0.8,0.6,1.5,1.3,1.5h5.3c0.7,0,1.3-0.7,1.3-1.5v-9
		C25,4.7,24.4,4,23.7,4z"/>
</g>
</svg>
