<?xml version="1.0" encoding="utf-8"?>
<!-- Generator: Adobe Illustrator 23.1.1, SVG Export Plug-In . SVG Version: 6.00 Build 0)  -->
<svg version="1.0" id="Layer_1" xmlns="http://www.w3.org/2000/svg" xmlns:xlink="http://www.w3.org/1999/xlink" x="0px" y="0px"
	 viewBox="0 0 29 29" style="enable-background:new 0 0 29 29;" xml:space="preserve">
<g>
	<path style="fill:#FFFFFF;" d="M28.5,15h-28C0.2,15,0,14.8,0,14.5S0.2,14,0.5,14h28c0.3,0,0.5,0.2,0.5,0.5S28.8,15,28.5,15z"/>
	<path style="fill:#FFFFFF;" d="M11,2.5H5C4.2,2.5,3.5,3.2,3.5,4v21c0,0.8,0.7,1.5,1.5,1.5h6c0.8,0,1.5-0.7,1.5-1.5V4
		C12.5,3.2,11.8,2.5,11,2.5z M11.5,25c0,0.3-0.2,0.5-0.5,0.5H5c-0.3,0-0.5-0.2-0.5-0.5V4c0-0.3,0.2-0.5,0.5-0.5h6
		c0.3,0,0.5,0.2,0.5,0.5V25z"/>
	<path style="fill:#FFFFFF;" d="M23.7,8.5h-5.3C17.6,8.5,17,9.2,17,10v9c0,0.8,0.6,1.5,1.3,1.5h5.3c0.7,0,1.3-0.7,1.3-1.5v-9
		C25,9.2,24.4,8.5,23.7,8.5z"/>
</g>
</svg>
