<?xml version="1.0" encoding="utf-8"?>
<!-- Generator: Adobe Illustrator 24.2.2, SVG Export Plug-In . SVG Version: 6.00 Build 0)  -->
<svg version="1.0" id="Layer_1" xmlns="http://www.w3.org/2000/svg" xmlns:xlink="http://www.w3.org/1999/xlink" x="0px" y="0px"
	 viewBox="0 0 29 29" style="enable-background:new 0 0 29 29;" xml:space="preserve">
<g>
	<g>
		<path style="fill:#FFFFFF;" d="M3.9,20v-9H1V7l3.1-0.3l0.6-5.5h4.5v5.5h5V11h-5v9c0,2.3,0.9,3.4,2.8,3.4c0.7,0,1.5-0.2,2-0.4
			l0.9,3.9c-1.1,0.4-2.5,0.8-4.3,0.8C5.7,27.7,3.9,24.6,3.9,20z"/>
	</g>
	<path style="fill:#FFFFFF;" d="M28,10.2l-2.8-1.6c0.1-0.1,0.2-0.2,0.3-0.3l1.1-1.9c0.5-0.8,0.3-1.9-0.5-2.3
		c-0.8-0.4-1.8-0.1-2.2,0.7l-1.1,1.9c-0.1,0.1-0.1,0.3-0.1,0.4l-2.8-1.6L19,6.8L21,8l-4.2,7.2l0,0l-1.8,3c-0.2,0.4-0.3,1.1,0.3,1.8
		c0,0,0,0,0,0l-0.2,0.4c-0.4,0.6-0.2,1.4,0.4,1.7c0.6,0.3,1.3,0.1,1.7-0.5l0.2-0.4c0,0,0,0,0,0c0.9,0.1,1.5-0.3,1.7-0.6l2.9-5.1l0,0
		l3-5.1l2.1,1.2L28,10.2z M23.4,10.2l-3.4,6l-1.8-0.1L22,9.4L23.4,10.2z"/>
</g>
</svg>
